<svg xmlns="http://www.w3.org/2000/svg" xmlns:xlink="http://www.w3.org/1999/xlink" contentStyleType="text/css" data-diagram-type="DESCRIPTION" height="209px" preserveAspectRatio="none" style="width:3031px;height:209px;background:#FFFFFF;" version="1.1" viewBox="0 0 3031 209" width="3031px" zoomAndPan="magnify"><defs/><g><!--cluster Real Estate Rental Platform--><g class="cluster" data-entity="Real Estate Rental Platform" data-source-line="6" data-uid="ent0006" id="cluster_Real Estate Rental Platform"><rect fill="none" height="97.06" rx="2.5" ry="2.5" style="stroke:#181818;stroke-width:1;" width="3018" x="7" y="106.79"/><text fill="#000000" font-family="sans-serif" font-size="14" font-weight="bold" lengthAdjust="spacing" textLength="218.9482" x="1406.5259" y="121.7851">Real Estate Rental Platform</text></g><!--entity VPL--><g class="entity" data-entity="VPL" data-source-line="8" data-uid="ent0007" id="entity_VPL"><ellipse cx="99.9976" cy="164.8235" fill="#F1F1F1" rx="76.8676" ry="17.7735" style="stroke:#181818;stroke-width:0.5;"/><text fill="#000000" font-family="sans-serif" font-size="14" lengthAdjust="spacing" textLength="123.2314" x="38.3819" y="169.472">View property list</text></g><!--entity FP--><g class="entity" data-entity="FP" data-source-line="9" data-uid="ent0008" id="entity_FP"><ellipse cx="283.9984" cy="164.8217" fill="#F1F1F1" rx="72.2084" ry="16.8417" style="stroke:#181818;stroke-width:0.5;"/><text fill="#000000" font-family="sans-serif" font-size="14" lengthAdjust="spacing" textLength="111.8906" x="228.0531" y="169.4701">Filter properties</text></g><!--entity SP--><g class="entity" data-entity="SP" data-source-line="10" data-uid="ent0009" id="entity_SP"><ellipse cx="469.0016" cy="164.8183" fill="#F1F1F1" rx="77.4416" ry="17.8883" style="stroke:#181818;stroke-width:0.5;"/><text fill="#000000" font-family="sans-serif" font-size="14" lengthAdjust="spacing" textLength="124.6055" x="406.6989" y="169.4668">Search properties</text></g><!--entity VPD--><g class="entity" data-entity="VPD" data-source-line="11" data-uid="ent0010" id="entity_VPD"><ellipse cx="668.999" cy="164.8198" fill="#F1F1F1" rx="88.049" ry="20.0098" style="stroke:#181818;stroke-width:0.5;"/><text fill="#000000" font-family="sans-serif" font-size="14" lengthAdjust="spacing" textLength="149.3105" x="594.3437" y="169.4682">View property details</text></g><!--entity RA--><g class="entity" data-entity="RA" data-source-line="18" data-uid="ent0015" id="entity_RA"><ellipse cx="1480.0037" cy="164.8207" fill="#F1F1F1" rx="74.9037" ry="17.3807" style="stroke:#181818;stroke-width:0.5;"/><text fill="#000000" font-family="sans-serif" font-size="14" lengthAdjust="spacing" textLength="118.4941" x="1420.7566" y="169.4692">Register account</text></g><!--entity LI--><g class="entity" data-entity="LI" data-source-line="19" data-uid="ent0016" id="entity_LI"><ellipse cx="1620.0004" cy="164.8236" fill="#F1F1F1" rx="29.8804" ry="14.5236" style="stroke:#181818;stroke-width:0.5;"/><text fill="#000000" font-family="sans-serif" font-size="14" lengthAdjust="spacing" textLength="38.0146" x="1600.9931" y="169.4721">Login</text></g><!--entity MR--><g class="entity" data-entity="MR" data-source-line="25" data-uid="ent0021" id="entity_MR"><ellipse cx="868.0049" cy="164.823" fill="#F1F1F1" rx="76.1649" ry="17.633" style="stroke:#181818;stroke-width:0.5;"/><text fill="#000000" font-family="sans-serif" font-size="14" lengthAdjust="spacing" textLength="121.543" x="807.2334" y="169.4714">Make reservation</text></g><!--entity VRH--><g class="entity" data-entity="VRH" data-source-line="26" data-uid="ent0022" id="entity_VRH"><ellipse cx="1077.0038" cy="164.8188" fill="#F1F1F1" rx="97.3938" ry="21.8788" style="stroke:#181818;stroke-width:0.5;"/><text fill="#000000" font-family="sans-serif" font-size="14" lengthAdjust="spacing" textLength="170.2969" x="991.8553" y="169.4672">View reservation history</text></g><!--entity CR--><g class="entity" data-entity="CR" data-source-line="27" data-uid="ent0023" id="entity_CR"><ellipse cx="1289.9988" cy="164.8178" fill="#F1F1F1" rx="80.3888" ry="18.4778" style="stroke:#181818;stroke-width:0.5;"/><text fill="#000000" font-family="sans-serif" font-size="14" lengthAdjust="spacing" textLength="131.5918" x="1224.2029" y="169.4662">Cancel reservation</text></g><!--entity PP--><g class="entity" data-entity="PP" data-source-line="33" data-uid="ent0027" id="entity_PP"><ellipse cx="1758.0046" cy="164.8209" fill="#F1F1F1" rx="73.4046" ry="17.0809" style="stroke:#181818;stroke-width:0.5;"/><text fill="#000000" font-family="sans-serif" font-size="14" lengthAdjust="spacing" textLength="114.8369" x="1700.5861" y="169.4694">Publish property</text></g><!--entity EP--><g class="entity" data-entity="EP" data-source-line="34" data-uid="ent0028" id="entity_EP"><ellipse cx="1931.0037" cy="164.8247" fill="#F1F1F1" rx="64.3737" ry="15.2747" style="stroke:#181818;stroke-width:0.5;"/><text fill="#000000" font-family="sans-serif" font-size="14" lengthAdjust="spacing" textLength="91.7998" x="1885.1038" y="169.4732">Edit property</text></g><!--entity DP--><g class="entity" data-entity="DP" data-source-line="35" data-uid="ent0029" id="entity_DP"><ellipse cx="2102.003" cy="164.8246" fill="#F1F1F1" rx="71.723" ry="16.7446" style="stroke:#181818;stroke-width:0.5;"/><text fill="#000000" font-family="sans-serif" font-size="14" lengthAdjust="spacing" textLength="110.6875" x="2046.6593" y="169.473">Delete property</text></g><!--entity VRQ--><g class="entity" data-entity="VRQ" data-source-line="36" data-uid="ent0030" id="entity_VRQ"><ellipse cx="2312.0042" cy="164.8188" fill="#F1F1F1" rx="103.1442" ry="23.0288" style="stroke:#181818;stroke-width:0.5;"/><text fill="#000000" font-family="sans-serif" font-size="14" lengthAdjust="spacing" textLength="182.9639" x="2220.5223" y="169.4673">View reservation requests</text></g><!--entity ARR--><g class="entity" data-entity="ARR" data-source-line="37" data-uid="ent0031" id="entity_ARR"><ellipse cx="2551.9997" cy="164.8179" fill="#F1F1F1" rx="102.1897" ry="22.8379" style="stroke:#181818;stroke-width:0.5;"/><text fill="#000000" font-family="sans-serif" font-size="14" lengthAdjust="spacing" textLength="180.8721" x="2461.5637" y="169.4664">Accept/Reject reservation</text></g><!--entity ML--><g class="entity" data-entity="ML" data-source-line="45" data-uid="ent0037" id="entity_ML"><ellipse cx="2764.9981" cy="164.8196" fill="#F1F1F1" rx="75.7481" ry="17.5496" style="stroke:#181818;stroke-width:0.5;"/><text fill="#000000" font-family="sans-serif" font-size="14" lengthAdjust="spacing" textLength="120.5381" x="2704.729" y="169.4681">Moderate listings</text></g><!--entity MU--><g class="entity" data-entity="MU" data-source-line="46" data-uid="ent0038" id="entity_MU"><ellipse cx="2942.0034" cy="164.8167" fill="#F1F1F1" rx="66.6834" ry="15.7367" style="stroke:#181818;stroke-width:0.5;"/><text fill="#000000" font-family="sans-serif" font-size="14" lengthAdjust="spacing" textLength="97.8906" x="2893.058" y="169.4651">Manage users</text></g><!--entity AnonymousUser--><g class="entity" data-entity="AnonymousUser" data-source-line="1" data-uid="ent0002" id="entity_AnonymousUser"><ellipse cx="376.9971" cy="14" fill="#F1F1F1" rx="8" ry="8" style="stroke:#181818;stroke-width:0.5;"/><path d="M376.9971,22 L376.9971,49 M363.9971,30 L389.9971,30 M376.9971,49 L363.9971,64 M376.9971,49 L389.9971,64" fill="none" style="stroke:#181818;stroke-width:0.5;"/><text fill="#000000" font-family="sans-serif" font-size="14" lengthAdjust="spacing" textLength="114.4541" x="319.77" y="78.4951">AnonymousUser</text></g><!--entity Tenant--><g class="entity" data-entity="Tenant" data-source-line="2" data-uid="ent0003" id="entity_Tenant"><ellipse cx="1289.9997" cy="14" fill="#F1F1F1" rx="8" ry="8" style="stroke:#181818;stroke-width:0.5;"/><path d="M1289.9997,22 L1289.9997,49 M1276.9997,30 L1302.9997,30 M1289.9997,49 L1276.9997,64 M1289.9997,49 L1302.9997,64" fill="none" style="stroke:#181818;stroke-width:0.5;"/><text fill="#000000" font-family="sans-serif" font-size="14" lengthAdjust="spacing" textLength="48.9795" x="1265.51" y="78.4951">Tenant</text></g><!--entity Owner--><g class="entity" data-entity="Owner" data-source-line="3" data-uid="ent0004" id="entity_Owner"><ellipse cx="1930.996" cy="14" fill="#F1F1F1" rx="8" ry="8" style="stroke:#181818;stroke-width:0.5;"/><path d="M1930.996,22 L1930.996,49 M1917.996,30 L1943.996,30 M1930.996,49 L1917.996,64 M1930.996,49 L1943.996,64" fill="none" style="stroke:#181818;stroke-width:0.5;"/><text fill="#000000" font-family="sans-serif" font-size="14" lengthAdjust="spacing" textLength="45.7119" x="1908.14" y="78.4951">Owner</text></g><!--entity Admin--><g class="entity" data-entity="Admin" data-source-line="4" data-uid="ent0005" id="entity_Admin"><ellipse cx="2853.0021" cy="14" fill="#F1F1F1" rx="8" ry="8" style="stroke:#181818;stroke-width:0.5;"/><path d="M2853.0021,22 L2853.0021,49 M2840.0021,30 L2866.0021,30 M2853.0021,49 L2840.0021,64 M2853.0021,49 L2866.0021,64" fill="none" style="stroke:#181818;stroke-width:0.5;"/><text fill="#000000" font-family="sans-serif" font-size="14" lengthAdjust="spacing" textLength="44.8643" x="2830.57" y="78.4951">Admin</text></g><!--link AnonymousUser to VPL--><g class="link" data-entity-1="AnonymousUser" data-entity-2="VPL" data-source-line="13" data-uid="lnk11" id="link_AnonymousUser_VPL"><path d="M319.63,56.66 C282.67,65.58 234.2,79.55 194,98.79 C166.44,111.99 142.7172,129.1069 124.4472,143.6269" fill="none" id="AnonymousUser-to-VPL" style="stroke:#181818;stroke-width:1;"/><polygon fill="#181818" points="119.75,147.36,129.2846,144.8918,123.6644,144.2491,124.3071,138.6289,119.75,147.36" style="stroke:#181818;stroke-width:1;"/></g><!--link AnonymousUser to FP--><g class="link" data-entity-1="AnonymousUser" data-entity-2="FP" data-source-line="14" data-uid="lnk12" id="link_AnonymousUser_FP"><path d="M347.83,82.03 C330.57,104.14 313.2797,126.2886 300.2097,143.0486" fill="none" id="AnonymousUser-to-FP" style="stroke:#181818;stroke-width:1;"/><polygon fill="#181818" points="296.52,147.78,305.2088,143.1427,299.5947,143.8372,298.9003,138.2231,296.52,147.78" style="stroke:#181818;stroke-width:1;"/></g><!--link AnonymousUser to SP--><g class="link" data-entity-1="AnonymousUser" data-entity-2="SP" data-source-line="15" data-uid="lnk13" id="link_AnonymousUser_SP"><path d="M405.86,82.03 C422.61,103.73 439.243,125.281 452.223,142.091" fill="none" id="AnonymousUser-to-SP" style="stroke:#181818;stroke-width:1;"/><polygon fill="#181818" points="455.89,146.84,453.5555,137.2718,452.8342,142.8825,447.2235,142.1611,455.89,146.84" style="stroke:#181818;stroke-width:1;"/></g><!--link AnonymousUser to VPD--><g class="link" data-entity-1="AnonymousUser" data-entity-2="VPD" data-source-line="16" data-uid="lnk14" id="link_AnonymousUser_VPD"><path d="M434.47,56.98 C472.21,66.11 522.15,80.19 564,98.79 C592.8,111.59 618.2218,127.7075 638.8418,142.0275" fill="none" id="AnonymousUser-to-VPD" style="stroke:#181818;stroke-width:1;"/><polygon fill="#181818" points="643.77,145.45,638.6594,137.0309,639.6632,142.5979,634.0961,143.6017,643.77,145.45" style="stroke:#181818;stroke-width:1;"/></g><!--link Tenant to RA--><g class="link" data-entity-1="Tenant" data-entity-2="RA" data-source-line="20" data-uid="lnk17" id="link_Tenant_RA"><path d="M1314.6,57.26 C1334.68,67.8 1363.63,83.51 1388,98.79 C1413.02,114.48 1435.7087,130.7186 1454.0687,144.3186" fill="none" id="Tenant-to-RA" style="stroke:#181818;stroke-width:1;"/><polygon fill="#181818" points="1458.89,147.89,1454.0389,139.3187,1454.8722,144.9139,1449.2771,145.7472,1458.89,147.89" style="stroke:#181818;stroke-width:1;"/></g><!--link Tenant to LI--><g class="link" data-entity-1="Tenant" data-entity-2="LI" data-source-line="21" data-uid="lnk18" id="link_Tenant_LI"><path d="M1314.85,47.08 C1375.45,53.39 1528.98,71.68 1572,98.79 C1591.83,111.29 1603.5083,129.7927 1611.1183,144.8827" fill="none" id="Tenant-to-LI" style="stroke:#181818;stroke-width:1;"/><polygon fill="#181818" points="1613.82,150.24,1613.3389,140.4029,1611.5686,145.7756,1606.1959,144.0052,1613.82,150.24" style="stroke:#181818;stroke-width:1;"/></g><!--link Owner to RA--><g class="link" data-entity-1="Owner" data-entity-2="RA" data-source-line="22" data-uid="lnk19" id="link_Owner_RA"><path d="M1907.86,44.55 C1849.48,45.05 1692.37,51.09 1573,98.79 C1544.09,110.34 1519.9919,128.501 1502.2919,143.701" fill="none" id="Owner-to-RA" style="stroke:#181818;stroke-width:1;"/><polygon fill="#181818" points="1497.74,147.61,1507.1738,144.7811,1501.5333,144.3525,1501.9619,138.7119,1497.74,147.61" style="stroke:#181818;stroke-width:1;"/></g><!--link Owner to LI--><g class="link" data-entity-1="Owner" data-entity-2="LI" data-source-line="23" data-uid="lnk20" id="link_Owner_LI"><path d="M1907.73,43.98 C1859.02,43.67 1744.42,48.77 1667,98.79 C1647.46,111.42 1636.0589,129.8564 1628.6589,144.8964" fill="none" id="Owner-to-LI" style="stroke:#181818;stroke-width:1;"/><polygon fill="#181818" points="1626.01,150.28,1633.5724,143.9705,1628.2174,145.7936,1626.3942,140.4386,1626.01,150.28" style="stroke:#181818;stroke-width:1;"/></g><!--link Tenant to MR--><g class="link" data-entity-1="Tenant" data-entity-2="MR" data-source-line="29" data-uid="lnk24" id="link_Tenant_MR"><path d="M1265.14,45.07 C1209.01,46.8 1069.01,55.51 962,98.79 C933.12,110.48 908.9011,128.4271 890.9311,143.5471" fill="none" id="Tenant-to-MR" style="stroke:#181818;stroke-width:1;"/><polygon fill="#181818" points="886.34,147.41,895.8019,144.6763,890.1659,144.1909,890.6513,138.5549,886.34,147.41" style="stroke:#181818;stroke-width:1;"/></g><!--link Tenant to VRH--><g class="link" data-entity-1="Tenant" data-entity-2="VRH" data-source-line="30" data-uid="lnk25" id="link_Tenant_VRH"><path d="M1265.4,58.15 C1245.55,69.07 1216.94,84.85 1192,98.79 C1165.07,113.84 1139.9185,128.069 1117.1485,140.989" fill="none" id="Tenant-to-VRH" style="stroke:#181818;stroke-width:1;"/><polygon fill="#181818" points="1111.93,143.95,1121.7317,142.9874,1116.2787,141.4825,1117.7837,136.0295,1111.93,143.95" style="stroke:#181818;stroke-width:1;"/></g><!--link Tenant to CR--><g class="link" data-entity-1="Tenant" data-entity-2="CR" data-source-line="31" data-uid="lnk26" id="link_Tenant_CR"><path d="M1290,82.03 C1290,103.32 1290,123.04 1290,139.88" fill="none" id="Tenant-to-CR" style="stroke:#181818;stroke-width:1;"/><polygon fill="#181818" points="1290,145.88,1294,136.88,1290,140.88,1286,136.88,1290,145.88" style="stroke:#181818;stroke-width:1;"/></g><!--link Owner to PP--><g class="link" data-entity-1="Owner" data-entity-2="PP" data-source-line="39" data-uid="lnk32" id="link_Owner_PP"><path d="M1907.87,59.59 C1891.36,70.34 1868.68,85.27 1849,98.79 C1824.99,115.29 1802.736,131.2559 1784.396,144.5659" fill="none" id="Owner-to-PP" style="stroke:#181818;stroke-width:1;"/><polygon fill="#181818" points="1779.54,148.09,1789.1734,146.0411,1783.5866,145.1532,1784.4745,139.5665,1779.54,148.09" style="stroke:#181818;stroke-width:1;"/></g><!--link Owner to EP--><g class="link" data-entity-1="Owner" data-entity-2="EP" data-source-line="40" data-uid="lnk33" id="link_Owner_EP"><path d="M1931,82.03 C1931,104.83 1931,126.69 1931,143.3" fill="none" id="Owner-to-EP" style="stroke:#181818;stroke-width:1;"/><polygon fill="#181818" points="1931,149.3,1935,140.3,1931,144.3,1927,140.3,1931,149.3" style="stroke:#181818;stroke-width:1;"/></g><!--link Owner to DP--><g class="link" data-entity-1="Owner" data-entity-2="DP" data-source-line="41" data-uid="lnk34" id="link_Owner_DP"><path d="M1954.17,59.53 C1970.7,70.25 1993.39,85.16 2013,98.79 C2036.73,115.28 2058.6207,131.3525 2076.5307,144.7125" fill="none" id="Owner-to-DP" style="stroke:#181818;stroke-width:1;"/><polygon fill="#181818" points="2081.34,148.3,2076.5177,139.7125,2077.3322,145.3104,2071.7343,146.1249,2081.34,148.3" style="stroke:#181818;stroke-width:1;"/></g><!--link Owner to VRQ--><g class="link" data-entity-1="Owner" data-entity-2="VRQ" data-source-line="42" data-uid="lnk35" id="link_Owner_VRQ"><path d="M1954.22,47.2 C2000.43,52.79 2106.73,68.11 2191,98.79 C2222.15,110.14 2250.0021,125.2312 2273.6621,139.5012" fill="none" id="Owner-to-VRQ" style="stroke:#181818;stroke-width:1;"/><polygon fill="#181818" points="2278.8,142.6,2273.1591,134.5266,2274.5185,140.0177,2269.0274,141.3771,2278.8,142.6" style="stroke:#181818;stroke-width:1;"/></g><!--link Owner to ARR--><g class="link" data-entity-1="Owner" data-entity-2="ARR" data-source-line="43" data-uid="lnk36" id="link_Owner_ARR"><path d="M1954.28,45.95 C2040.53,50.95 2341.62,70.15 2433,98.79 C2464.9,108.79 2492.9795,124.4709 2516.1495,139.3309" fill="none" id="Owner-to-ARR" style="stroke:#181818;stroke-width:1;"/><polygon fill="#181818" points="2521.2,142.57,2515.7836,134.3443,2516.9912,139.8707,2511.4648,141.0783,2521.2,142.57" style="stroke:#181818;stroke-width:1;"/></g><!--link Admin to ML--><g class="link" data-entity-1="Admin" data-entity-2="ML" data-source-line="48" data-uid="lnk39" id="link_Admin_ML"><path d="M2830.11,75.65 C2813.2,98.54 2794.4039,123.9932 2780.7739,142.4532" fill="none" id="Admin-to-ML" style="stroke:#181818;stroke-width:1;"/><polygon fill="#181818" points="2777.21,147.28,2785.7738,142.4157,2780.1799,143.2576,2779.338,137.6638,2777.21,147.28" style="stroke:#181818;stroke-width:1;"/></g><!--link Admin to MU--><g class="link" data-entity-1="Admin" data-entity-2="MU" data-source-line="49" data-uid="lnk40" id="link_Admin_MU"><path d="M2875.92,75.33 C2893.53,98.92 2913.5088,125.6734 2927.2188,144.0234" fill="none" id="Admin-to-MU" style="stroke:#181818;stroke-width:1;"/><polygon fill="#181818" points="2930.81,148.83,2928.6276,139.226,2927.8173,144.8245,2922.2188,144.0142,2930.81,148.83" style="stroke:#181818;stroke-width:1;"/></g><!--SRC=[TLFBJiCm4BpdAonEvL3n1qXHamgaH1YNzcwS9JMuTh4tL1NYt_4ZD0a1APUPyUxEFi856ajoRVJvO3gtTM0p7hadq5nZ3nvE-YBapK7gBBCWaEjM0RbYm1Kf7N84ma2ZHrHnV37sS4K-CqByjzX9E96ZDKUmU2PAEhmct94ThOAwbWh1_kWIN1JND6WRu5RiVsiREi_Q07AfN9-uI9KdpP7byhQlEUTZkJczeVzaAR9WWK7hc_4a5y9qEhN5yY1LffKwukhUupJI61pr4OvwdF8W3z2h8LtDtu1Oy0O-E4gJCjViCeUHHFRUax7dD0fs5zwik1QWPWbMB9jwYHb7E8MFY1IneDspN-DbCQaMZMif6ubJleny0GhyaKoKWlxPW8Nt3XpsosIFuL4k11pnXi6hFxvP8pcBleQnHIy3BAUmcC9KOi1zjaLj6h3XiiF9IjqcGtML5g9v2wJpFdfw6sBY7v96MKtXDllw1W00]--></g></svg>